<svg width="693" height="693" viewBox="0 0 693 693" fill="none" xmlns="http://www.w3.org/2000/svg">
    <rect width="693" height="693" rx="100" fill="#0C40A5"/>
    <path d="M336 474C336 493.33 320.33 509 301 509C281.67 509 266 493.33 266 474C266 454.67 281.67 439 301 439C320.33 439 336 454.67 336 474ZM295.814 474C295.814 476.864 298.136 479.186 301 479.186C303.864 479.186 306.186 476.864 306.186 474C306.186 471.136 303.864 468.814 301 468.814C298.136 468.814 295.814 471.136 295.814 474Z" fill="white"/>
    <path d="M494 474C494 493.33 478.33 509 459 509C439.67 509 424 493.33 424 474C424 454.67 439.67 439 459 439C478.33 439 494 454.67 494 474ZM453.814 474C453.814 476.864 456.136 479.186 459 479.186C461.864 479.186 464.186 476.864 464.186 474C464.186 471.136 461.864 468.814 459 468.814C456.136 468.814 453.814 471.136 453.814 474Z" fill="white"/>
    <path fill-rule="evenodd" clip-rule="evenodd" d="M185.5 206.992C185.334 206.997 185.167 207 185 207C176.716 207 170 200.284 170 192C170 183.716 176.716 177 185 177C185.167 177 185.334 177.003 185.5 177.008V177H242.103C249.811 177 256.423 182.496 257.833 190.074L267.702 243.122H501.806C511.767 243.122 519.308 252.128 517.556 261.935L495.741 384.111C493.059 400.014 483.376 410.099 473.189 415.8C463.448 421.251 452.886 423 445.697 423H317.868C281.853 423 266.085 399.623 263.429 384.178L240.488 260.866L230.467 207H185.5V206.992ZM292.944 378.808L273.283 273.122H485.084L466.194 378.914L466.179 379L466.165 379.085C465.298 384.287 462.51 387.398 458.538 389.62C454.1 392.104 448.794 393 445.697 393H317.868C297.588 393 293.358 381.274 292.993 379.085L292.97 378.946L292.944 378.808Z" fill="white"/>
</svg>