
<svg width="121" height="113" viewBox="0 0 240 225" fill="none" xmlns="http://www.w3.org/2000/svg">
    <g clip-path="url(#clip0_43_1352)">
        <path d="M108.214 0.322891C53.9141 6.12289 13.7141 47.6229 11.0141 100.823C10.4141 112.523 12.3141 129.423 15.1141 136.023C16.1141 138.623 16.4141 138.023 19.6141 126.523C21.5141 119.723 23.1141 114.123 23.2141 114.023C23.3141 113.823 66.3141 103.123 118.714 90.2229C171.214 77.2229 214.314 66.5229 214.514 66.3229C214.714 66.1229 213.714 63.6229 212.314 60.8229L209.714 55.8229L213.114 54.9229C214.914 54.3229 219.914 53.1229 224.114 52.1229L231.714 50.3229L233.114 45.3229C238.214 27.9229 240.814 17.5229 240.414 17.1229C239.614 16.2229 232.714 17.9229 231.314 19.2229C230.614 19.9229 229.014 24.3229 227.714 29.0229L225.514 37.6229L172.314 50.6229C143.114 57.8229 99.8141 68.5229 76.0141 74.4229C52.2141 80.3229 32.6141 84.9229 32.3141 84.6229C32.0141 84.4229 33.9141 76.6229 36.5141 67.4229L41.2141 50.7229L44.7141 49.7229C46.6141 49.2229 75.7141 42.0229 109.214 33.7229C142.814 25.5229 171.114 18.3229 172.214 17.9229C173.914 17.1229 173.514 16.6229 168.714 13.9229C152.314 4.42289 125.714 -1.47711 108.214 0.322891Z" fill="#0B317D"/>
        <path d="M211.614 85.1227L207.214 100.523L203.714 101.523C201.814 102.023 159.714 112.523 110.214 124.823C60.7141 137.123 20.0141 147.323 19.8141 147.423C19.1141 147.923 24.2141 158.023 28.2141 164.323C30.3141 167.623 32.4141 169.723 33.4141 169.723C34.4141 169.623 71.9141 160.523 116.714 149.323C161.514 138.223 198.314 129.123 198.514 129.323C198.814 129.523 196.514 137.623 190.714 157.723L188.714 164.323L179.014 166.623C166.514 169.623 27.1141 204.023 15.4141 206.923L6.61411 209.223L5.11411 214.723C4.21411 217.723 3.31411 221.023 3.11411 221.923C2.81411 223.023 3.11411 223.723 3.91411 223.723C4.61411 223.723 21.9141 219.523 42.2141 214.423L79.2141 205.123L87.0141 207.423C141.614 223.123 199.114 193.023 217.114 139.223C223.314 120.723 224.114 99.3227 219.214 80.1227C217.914 74.8226 216.614 70.3227 216.414 70.1227C216.214 69.9227 214.114 76.6227 211.614 85.1227Z" fill="#0B317D"/>
    </g>
    <defs>
        <clipPath id="clip0_43_1352">
            <rect width="120" height="113" fill="white"/>
        </clipPath>
    </defs>
</svg>


