<svg width="78" height="78" viewBox="0 0 78 78" fill="none" xmlns="http://www.w3.org/2000/svg">
    <circle cx="39" cy="39" r="39" fill="#F2F2F2"/>
    <path d="M17.7773 53.3945H17.0312V52H12.9492V53.3984H12.1992L12.1953 51.3867H12.6602C12.9049 51.1107 13.099 50.7409 13.2422 50.2773C13.388 49.8112 13.4792 49.3008 13.5156 48.7461L13.6406 46.3125H17.043V51.3867H17.7852L17.7773 53.3945ZM13.5156 51.3867H16.2891V46.9297H14.3633L14.2812 48.6016C14.2474 49.2552 14.1602 49.8125 14.0195 50.2734C13.8815 50.7344 13.7135 51.1055 13.5156 51.3867ZM18.3711 49.8477C18.3711 49.4336 18.4518 49.0612 18.6133 48.7305C18.7773 48.3997 19.0039 48.1445 19.293 47.9648C19.5846 47.7852 19.9167 47.6953 20.2891 47.6953C20.8646 47.6953 21.3294 47.8945 21.6836 48.293C22.0404 48.6914 22.2188 49.2214 22.2188 49.8828V49.9336C22.2188 50.3451 22.1393 50.7148 21.9805 51.043C21.8242 51.3685 21.599 51.6224 21.3047 51.8047C21.013 51.987 20.6771 52.0781 20.2969 52.0781C19.724 52.0781 19.2591 51.8789 18.9023 51.4805C18.5482 51.082 18.3711 50.5547 18.3711 49.8984V49.8477ZM19.0977 49.9336C19.0977 50.4023 19.2057 50.7786 19.4219 51.0625C19.6406 51.3464 19.9323 51.4883 20.2969 51.4883C20.6641 51.4883 20.9557 51.3451 21.1719 51.0586C21.388 50.7695 21.4961 50.3659 21.4961 49.8477C21.4961 49.3841 21.3854 49.0091 21.1641 48.7227C20.9453 48.4336 20.6536 48.2891 20.2891 48.2891C19.9323 48.2891 19.6445 48.431 19.4258 48.7148C19.207 48.9987 19.0977 49.4049 19.0977 49.9336ZM24.9805 48.0156C25.5117 48.0156 25.9362 48.194 26.2539 48.5508C26.5742 48.9049 26.7344 49.3724 26.7344 49.9531V50.0195C26.7344 50.418 26.6576 50.7747 26.5039 51.0898C26.3503 51.4023 26.1289 51.6458 25.8398 51.8203C25.5534 51.9922 25.2227 52.0781 24.8477 52.0781C24.2799 52.0781 23.8229 51.8893 23.4766 51.5117C23.1302 51.1315 22.957 50.6224 22.957 49.9844V49.6328C22.957 48.7448 23.1211 48.0391 23.4492 47.5156C23.7799 46.9922 24.2669 46.6732 24.9102 46.5586C25.2747 46.4935 25.5208 46.4141 25.6484 46.3203C25.776 46.2266 25.8398 46.0977 25.8398 45.9336H26.4336C26.4336 46.2591 26.3594 46.513 26.2109 46.6953C26.0651 46.8776 25.8307 47.0065 25.5078 47.082L24.9688 47.2031C24.5391 47.3047 24.2161 47.4766 24 47.7188C23.7865 47.9583 23.6471 48.2786 23.582 48.6797C23.9648 48.237 24.431 48.0156 24.9805 48.0156ZM24.8398 48.6094C24.4857 48.6094 24.2044 48.7292 23.9961 48.9688C23.7878 49.2057 23.6836 49.5352 23.6836 49.957V50.0195C23.6836 50.4727 23.7878 50.832 23.9961 51.0977C24.207 51.3607 24.4909 51.4922 24.8477 51.4922C25.207 51.4922 25.4909 51.3594 25.6992 51.0938C25.9076 50.8281 26.0117 50.4401 26.0117 49.9297C26.0117 49.5312 25.9062 49.2122 25.6953 48.9727C25.487 48.7305 25.2018 48.6094 24.8398 48.6094ZM30.1562 52C30.1146 51.9167 30.0807 51.7682 30.0547 51.5547C29.7188 51.9036 29.3177 52.0781 28.8516 52.0781C28.4349 52.0781 28.0924 51.9609 27.8242 51.7266C27.5586 51.4896 27.4258 51.1901 27.4258 50.8281C27.4258 50.388 27.5924 50.0469 27.9258 49.8047C28.2617 49.5599 28.7331 49.4375 29.3398 49.4375H30.043V49.1055C30.043 48.8529 29.9674 48.6523 29.8164 48.5039C29.6654 48.3529 29.4427 48.2773 29.1484 48.2773C28.8906 48.2773 28.6745 48.3424 28.5 48.4727C28.3255 48.6029 28.2383 48.7604 28.2383 48.9453H27.5117C27.5117 48.7344 27.5859 48.5312 27.7344 48.3359C27.8854 48.138 28.0885 47.9818 28.3438 47.8672C28.6016 47.7526 28.8841 47.6953 29.1914 47.6953C29.6784 47.6953 30.0599 47.8177 30.3359 48.0625C30.612 48.3047 30.7552 48.6393 30.7656 49.0664V51.0117C30.7656 51.3997 30.8151 51.7083 30.9141 51.9375V52H30.1562ZM28.957 51.4492C29.1836 51.4492 29.3984 51.3906 29.6016 51.2734C29.8047 51.1562 29.9518 51.0039 30.043 50.8164V49.9492H29.4766C28.5911 49.9492 28.1484 50.2083 28.1484 50.7266C28.1484 50.9531 28.224 51.1302 28.375 51.2578C28.526 51.3854 28.7201 51.4492 28.957 51.4492ZM31.9648 52V47.7734H33.6133C34.1758 47.7734 34.6068 47.8724 34.9062 48.0703C35.2083 48.2656 35.3594 48.5534 35.3594 48.9336C35.3594 49.1289 35.3008 49.306 35.1836 49.4648C35.0664 49.6211 34.8932 49.7409 34.6641 49.8242C34.9193 49.8841 35.1237 50.0013 35.2773 50.1758C35.4336 50.3503 35.5117 50.5586 35.5117 50.8008C35.5117 51.1888 35.3685 51.4857 35.082 51.6914C34.7982 51.8971 34.3958 52 33.875 52H31.9648ZM32.6875 50.1445V51.418H33.8828C34.1849 51.418 34.4102 51.362 34.5586 51.25C34.7096 51.138 34.7852 50.9805 34.7852 50.7773C34.7852 50.3555 34.4753 50.1445 33.8555 50.1445H32.6875ZM32.6875 49.5664H33.6211C34.2982 49.5664 34.6367 49.3685 34.6367 48.9727C34.6367 48.5768 34.3164 48.3724 33.6758 48.3594H32.6875V49.5664ZM39.2031 47.7734H39.9258V52H39.2031V48.918L37.2539 52H36.5312V47.7734H37.2539V50.8594L39.2031 47.7734ZM44.2266 48.3594H42.8086V52H42.0859V48.3594H40.6953V47.7734H44.2266V48.3594ZM45.7188 49.2305H46.8164C47.2956 49.2357 47.6745 49.3607 47.9531 49.6055C48.2318 49.8503 48.3711 50.1823 48.3711 50.6016C48.3711 51.0234 48.2279 51.362 47.9414 51.6172C47.6549 51.8724 47.2695 52 46.7852 52H44.9961V47.7734H45.7188V49.2305ZM45.7188 49.8203V51.4102H46.793C47.0638 51.4102 47.2734 51.3411 47.4219 51.2031C47.5703 51.0625 47.6445 50.8711 47.6445 50.6289C47.6445 50.3945 47.5716 50.2031 47.4258 50.0547C47.2826 49.9036 47.0807 49.8255 46.8203 49.8203H45.7188ZM51.1016 49.9648C51.1016 49.2591 51.2383 48.7044 51.5117 48.3008C51.7852 47.8971 52.1602 47.6953 52.6367 47.6953C52.8581 47.6953 53.0521 47.7331 53.2188 47.8086V46H53.9414V47.832C54.1237 47.7409 54.3372 47.6953 54.582 47.6953C55.0612 47.6953 55.4375 47.8971 55.7109 48.3008C55.9844 48.7044 56.1211 49.2865 56.1211 50.0469C56.1211 50.6693 55.9844 51.1641 55.7109 51.5312C55.4401 51.8984 55.0664 52.082 54.5898 52.082C54.3372 52.082 54.1211 52.0404 53.9414 51.957V53.625H53.2188V51.9688C53.0469 52.0443 52.8503 52.082 52.6289 52.082C52.1549 52.082 51.7812 51.8984 51.5078 51.5312C51.237 51.1641 51.1016 50.6615 51.1016 50.0234V49.9648ZM55.3984 49.9648C55.3984 49.4336 55.3073 49.0221 55.125 48.7305C54.9427 48.4362 54.6914 48.2891 54.3711 48.2891C54.207 48.2891 54.0638 48.3151 53.9414 48.3672V51.4258C54.0586 51.4701 54.2044 51.4922 54.3789 51.4922C54.7018 51.4922 54.9518 51.3672 55.1289 51.1172C55.3086 50.8672 55.3984 50.4831 55.3984 49.9648ZM51.8242 50.0469C51.8242 50.5208 51.9089 50.8802 52.0781 51.125C52.2474 51.3698 52.4909 51.4922 52.8086 51.4922C52.9596 51.4922 53.0964 51.4688 53.2188 51.4219V48.3555C53.1094 48.3112 52.9753 48.2891 52.8164 48.2891C52.4987 48.2891 52.2539 48.431 52.082 48.7148C51.9102 48.9987 51.8242 49.4427 51.8242 50.0469ZM56.8711 49.8477C56.8711 49.4336 56.9518 49.0612 57.1133 48.7305C57.2773 48.3997 57.5039 48.1445 57.793 47.9648C58.0846 47.7852 58.4167 47.6953 58.7891 47.6953C59.3646 47.6953 59.8294 47.8945 60.1836 48.293C60.5404 48.6914 60.7188 49.2214 60.7188 49.8828V49.9336C60.7188 50.3451 60.6393 50.7148 60.4805 51.043C60.3242 51.3685 60.099 51.6224 59.8047 51.8047C59.513 51.987 59.1771 52.0781 58.7969 52.0781C58.224 52.0781 57.7591 51.8789 57.4023 51.4805C57.0482 51.082 56.8711 50.5547 56.8711 49.8984V49.8477ZM57.5977 49.9336C57.5977 50.4023 57.7057 50.7786 57.9219 51.0625C58.1406 51.3464 58.4323 51.4883 58.7969 51.4883C59.1641 51.4883 59.4557 51.3451 59.6719 51.0586C59.888 50.7695 59.9961 50.3659 59.9961 49.8477C59.9961 49.3841 59.8854 49.0091 59.6641 48.7227C59.4453 48.4336 59.1536 48.2891 58.7891 48.2891C58.4323 48.2891 58.1445 48.431 57.9258 48.7148C57.707 48.9987 57.5977 49.4049 57.5977 49.9336ZM64.6797 48.3594H63.2617V52H62.5391V48.3594H61.1484V47.7734H64.6797V48.3594ZM65.0273 49.8477C65.0273 49.4336 65.1081 49.0612 65.2695 48.7305C65.4336 48.3997 65.6602 48.1445 65.9492 47.9648C66.2409 47.7852 66.5729 47.6953 66.9453 47.6953C67.5208 47.6953 67.9857 47.8945 68.3398 48.293C68.6966 48.6914 68.875 49.2214 68.875 49.8828V49.9336C68.875 50.3451 68.7956 50.7148 68.6367 51.043C68.4805 51.3685 68.2552 51.6224 67.9609 51.8047C67.6693 51.987 67.3333 52.0781 66.9531 52.0781C66.3802 52.0781 65.9154 51.8789 65.5586 51.4805C65.2044 51.082 65.0273 50.5547 65.0273 49.8984V49.8477ZM65.7539 49.9336C65.7539 50.4023 65.862 50.7786 66.0781 51.0625C66.2969 51.3464 66.5885 51.4883 66.9531 51.4883C67.3203 51.4883 67.612 51.3451 67.8281 51.0586C68.0443 50.7695 68.1523 50.3659 68.1523 49.8477C68.1523 49.3841 68.0417 49.0091 67.8203 48.7227C67.6016 48.4336 67.3099 48.2891 66.9453 48.2891C66.5885 48.2891 66.3008 48.431 66.082 48.7148C65.8633 48.9987 65.7539 49.4049 65.7539 49.9336Z" fill="black"/>
    <path d="M31.625 22.5V19.875H33.375V22.5H36V24.25H33.375V26.875H31.625V24.25H29V22.5H31.625ZM34.25 27.75V25.125H36.875V22.5H43L44.575 24.25H47.375C48.3375 24.25 49.125 25.0375 49.125 26V36.5C49.125 37.4625 48.3375 38.25 47.375 38.25H33.375C32.4125 38.25 31.625 37.4625 31.625 36.5V27.75H34.25ZM40.375 35.625C44.2688 35.625 46.2288 30.9175 43.4725 28.1525C40.7163 25.3962 36 27.3563 36 31.25C36 33.665 37.96 35.625 40.375 35.625ZM37.575 31.25C37.575 33.7437 40.5938 34.995 42.3525 33.2275C44.12 31.4688 42.8687 28.45 40.375 28.45C39.6331 28.4523 38.9223 28.748 38.3976 29.2726C37.873 29.7973 37.5773 30.5081 37.575 31.25Z" fill="black"/>
</svg>
